<?xml version="1.0" encoding="UTF-8"?>
<svg width="21px" height="18px" viewBox="0 0 21 18" version="1.1" xmlns="http://www.w3.org/2000/svg" xmlns:xlink="http://www.w3.org/1999/xlink">
    <!-- Generator: Sketch 56.2 (81672) - https://sketch.com -->
    <title>settings/analysis_24_w</title>
    <desc>Created with Sketch.</desc>
    <g id="Symbols" stroke="none" stroke-width="1" fill="none" fill-rule="evenodd">
        <g id="Control-Hub/Site-Nav-Left/Collapsed-Analytics" transform="translate(-30.000000, -355.000000)" fill="#FFFFFF">
            <g id="Group-2" transform="translate(0.000000, 112.000000)">
                <g id="settings/analysis-active_24_w" transform="translate(28.000000, 240.000000)">
                    <g id="analysis-active_24_w" transform="translate(2.000000, 3.000000)">
                        <path d="M20.5,18 L0.5,18 C0.224,18 0,17.776 0,17.5 C0,17.224 0.224,17 0.5,17 L20.5,17 C20.776,17 21,17.224 21,17.5 C21,17.776 20.776,18 20.5,18 Z M4.5,15 L2.5,15 C1.673,15 1,14.327 1,13.5 L1,5.5 C1,4.673 1.673,4 2.5,4 L4.5,4 C5.327,4 6,4.673 6,5.5 L6,13.5 C6,14.327 5.327,15 4.5,15 Z M11.5,15 L9.5,15 C8.673,15 8,14.327 8,13.5 L8,9.5 C8,8.673 8.673,8 9.5,8 L11.5,8 C12.327,8 13,8.673 13,9.5 L13,13.5 C13,14.327 12.327,15 11.5,15 Z M18.5,15 L16.5,15 C15.673,15 15,14.327 15,13.5 L15,1.5 C15,0.673 15.673,0 16.5,0 L18.5,0 C19.327,0 20,0.673 20,1.5 L20,13.5 C20,14.327 19.327,15 18.5,15 Z" id="fill"></path>
                    </g>
                </g>
            </g>
        </g>
    </g>
</svg>