<?xml version="1.0" encoding="UTF-8"?>
<svg width="8px" height="5px" viewBox="0 0 8 5" version="1.1" xmlns="http://www.w3.org/2000/svg" xmlns:xlink="http://www.w3.org/1999/xlink">
    <!-- Generator: Sketch 56.2 (81672) - https://sketch.com -->
    <title>navigation/arrow-filled-up_12_w</title>
    <desc>Created with Sketch.</desc>
    <g id="Page-1" stroke="none" stroke-width="1" fill="none" fill-rule="evenodd">
        <g id="Concept_Jabber-Analytics" transform="translate(-226.000000, -181.000000)" fill="#16A693">
            <g id="Group-24" transform="translate(112.000000, 124.000000)">
                <g id="Group" transform="translate(0.000000, -0.000000)">
                    <g id="Group-16" transform="translate(16.000000, 40.000000)">
                        <g id="Group-15" transform="translate(61.000000, 8.000000)">
                            <g id="Group-17">
                                <g id="navigation/arrow-filled-up_8_w" transform="translate(37.000000, 8.000000)">
                                    <g id="arrow-filled-up_8_w" transform="translate(0.000000, 1.000000)">
                                        <path d="M4.6167,0.2627 C4.2767,-0.0873 3.7237,-0.0873 3.3837,0.2627 L0.2557,3.4727 C0.0917,3.6397 -0.0003,3.8677 -0.0003,4.1047 C-0.0003,4.5987 0.3907,4.9997 0.8717,4.9997 L7.1277,4.9997 C7.3597,4.9997 7.5817,4.9057 7.7447,4.7387 C7.9147,4.5637 7.9997,4.3337 7.9997,4.1047 C7.9997,3.8757 7.9147,3.6467 7.7447,3.4727 L4.6167,0.2627 Z" id="fill"></path>
                                    </g>
                                </g>
                            </g>
                        </g>
                    </g>
                </g>
            </g>
        </g>
    </g>
</svg>