<?xml version="1.0" encoding="UTF-8"?>
<svg width="14px" height="8px" viewBox="0 0 14 8" version="1.1" xmlns="http://www.w3.org/2000/svg" xmlns:xlink="http://www.w3.org/1999/xlink">
    <!-- Generator: Sketch 56.2 (81672) - https://sketch.com -->
    <title>arrow-up_16_w</title>
    <desc>Created with Sketch.</desc>
    <g id="Page-1" stroke="none" stroke-width="1" fill="none" fill-rule="evenodd">
        <g id="Concept_Jabber-Analytics" transform="translate(-1377.000000, -90.000000)" fill="#000000">
            <g id="dark/form-elements/dropdown/default/normal" transform="translate(1148.000000, 76.000000)">
                <g id="navigation/arrow-down_12" transform="translate(228.000000, 10.000000)">
                    <g id="arrow-down_12" transform="translate(1.333333, 4.000000)">
                        <g id="icon" transform="translate(6.666667, 4.000000) scale(1, -1) rotate(90.000000) translate(-6.666667, -4.000000) translate(2.666667, -2.666667)">
                            <path d="M0.667601019,13.3327867 C0.484934352,13.3327867 0.303601019,13.25812 0.171601019,13.1127867 C-0.0750656482,12.83812 -0.0523989815,12.4167867 0.220934352,12.17012 L6.33693435,6.66612 L0.220934352,1.16212 C-0.0523989815,0.915453333 -0.0750656482,0.49412 0.171601019,0.219453333 C0.418267685,-0.0525466667 0.839601019,-0.0752133333 1.11293435,0.17012 L7.77960102,6.17012 C7.92093435,6.29812 8.00093435,6.47678667 8.00093435,6.66612 C8.00093435,6.85545333 7.92093435,7.03412 7.77960102,7.16212 L1.11293435,13.16212 C0.986267685,13.2767867 0.826267685,13.3327867 0.667601019,13.3327867" id="fill" transform="translate(4.000634, 6.666317) scale(-1, 1) translate(-4.000634, -6.666317) "></path>
                        </g>
                    </g>
                </g>
            </g>
        </g>
    </g>
</svg>