<?xml version="1.0" encoding="UTF-8"?>
<svg width="8px" height="5px" viewBox="0 0 8 5" version="1.1" xmlns="http://www.w3.org/2000/svg" xmlns:xlink="http://www.w3.org/1999/xlink">
    <!-- Generator: Sketch 56.2 (81672) - https://sketch.com -->
    <title>navigation/arrow-filled-up_12_w</title>
    <desc>Created with Sketch.</desc>
    <g id="Page-1" stroke="none" stroke-width="1" fill="none" fill-rule="evenodd">
        <g id="Concept_Jabber-Analytics" transform="translate(-858.000000, -182.000000)" fill="#D93829">
            <g id="Group-24" transform="translate(112.000000, 124.000000)">
                <g id="Group-7" transform="translate(633.000000, -0.000000)">
                    <g id="Group-19" transform="translate(15.000000, 40.000000)">
                        <g id="Group-15" transform="translate(69.000000, 8.000000)">
                            <g id="Group-17">
                                <g id="navigation/arrow-filled-down_8_w" transform="translate(29.000000, 8.000000)">
                                    <g id="arrow-filled-down_8_w" transform="translate(0.000000, 2.000000)">
                                        <path d="M3.3833,4.7373 C3.7233,5.0873 4.2763,5.0873 4.6163,4.7373 L7.7453,1.5273 C7.9083,1.3603 8.0003,1.1323 8.0003,0.8953 C8.0003,0.4013 7.6093,0.0003 7.1283,0.0003 L0.8723,0.0003 C0.6403,0.0003 0.4183,0.0943 0.2553,0.2613 C0.0853,0.4363 0.0003,0.6663 0.0003,0.8953 C0.0003,1.1243 0.0853,1.3533 0.2553,1.5273 L3.3833,4.7373 Z" id="fill"></path>
                                    </g>
                                </g>
                            </g>
                        </g>
                    </g>
                </g>
            </g>
        </g>
    </g>
</svg>