<?xml version="1.0" encoding="UTF-8"?>
<svg width="21px" height="24px" viewBox="0 0 21 24" version="1.1" xmlns="http://www.w3.org/2000/svg" xmlns:xlink="http://www.w3.org/1999/xlink">
    <!-- Generator: Sketch 56.2 (81672) - https://sketch.com -->
    <title>phone/company_24_w</title>
    <desc>Created with Sketch.</desc>
    <g id="Symbols" stroke="none" stroke-width="1" fill="none" fill-rule="evenodd">
        <g id="Control-Hub/Site-Nav-Left/Collapsed-Analytics" transform="translate(-30.000000, -160.000000)" fill="#FFFFFF">
            <g id="Group-2" transform="translate(0.000000, 112.000000)">
                <g id="phone/company_24_w" transform="translate(28.000000, 48.000000)">
                    <g id="company_24_w" transform="translate(2.000000, 0.000000)">
                        <path d="M18.5,8 C19.881,8 21,9.119 21,10.5 L21,23 C21,23.552 20.552,24 20,24 L1,24 C0.448,24 0,23.552 0,23 L0,2.5 C0,1.119 1.119,0 2.5,0 L10.5,0 C11.881,0 13,1.119 13,2.5 L13,8 L18.5,8 Z M20,23 L20,10.5 C20,9.673 19.327,9 18.5,9 L6.5,9 C5.673,9 5,9.673 5,10.5 L5,23 L20,23 Z M4,10.5 C4,9.119 5.119,8 6.5,8 L12,8 L12,2.5 C12,1.673 11.327,1 10.5,1 L2.5,1 C1.673,1 1,1.673 1,2.5 L1,23 L4,23 L4,10.5 Z M12.5,12 C12.776,12 13,12.224 13,12.5 C13,12.776 12.776,13 12.5,13 C12.224,13 12,12.776 12,12.5 C12,12.224 12.224,12 12.5,12 Z M8.5,12 C8.776,12 9,12.224 9,12.5 C9,12.776 8.776,13 8.5,13 C8.224,13 8,12.776 8,12.5 C8,12.224 8.224,12 8.5,12 Z M8.5,5 C8.224,5 8,4.776 8,4.5 C8,4.224 8.224,4 8.5,4 C8.776,4 9,4.224 9,4.5 C9,4.776 8.776,5 8.5,5 Z M4.5,4 C4.776,4 5,4.224 5,4.5 C5,4.776 4.776,5 4.5,5 C4.224,5 4,4.776 4,4.5 C4,4.224 4.224,4 4.5,4 Z M16.5,12 C16.776,12 17,12.224 17,12.5 C17,12.776 16.776,13 16.5,13 C16.224,13 16,12.776 16,12.5 C16,12.224 16.224,12 16.5,12 Z M16.5,16 C16.776,16 17,16.224 17,16.5 C17,16.776 16.776,17 16.5,17 C16.224,17 16,16.776 16,16.5 C16,16.224 16.224,16 16.5,16 Z M16.5,20 C16.776,20 17,20.224 17,20.5 C17,20.776 16.776,21 16.5,21 C16.224,21 16,20.776 16,20.5 C16,20.224 16.224,20 16.5,20 Z M12.5,16 C12.776,16 13,16.224 13,16.5 C13,16.776 12.776,17 12.5,17 C12.224,17 12,16.776 12,16.5 C12,16.224 12.224,16 12.5,16 Z M12.5,20 C12.776,20 13,20.224 13,20.5 C13,20.776 12.776,21 12.5,21 C12.224,21 12,20.776 12,20.5 C12,20.224 12.224,20 12.5,20 Z M8.5,16 C8.776,16 9,16.224 9,16.5 C9,16.776 8.776,17 8.5,17 C8.224,17 8,16.776 8,16.5 C8,16.224 8.224,16 8.5,16 Z M8.5,20 C8.776,20 9,20.224 9,20.5 C9,20.776 8.776,21 8.5,21 C8.224,21 8,20.776 8,20.5 C8,20.224 8.224,20 8.5,20 Z" id="fill"></path>
                    </g>
                </g>
            </g>
        </g>
    </g>
</svg>