<?xml version="1.0" encoding="UTF-8"?>
<svg width="8px" height="12px" viewBox="0 0 8 12" version="1.1" xmlns="http://www.w3.org/2000/svg" xmlns:xlink="http://www.w3.org/1999/xlink">
    <!-- Generator: Sketch 56.2 (81672) - https://sketch.com -->
    <title>common-actions/delete_12</title>
    <desc>Created with Sketch.</desc>
    <g id="Page-1" stroke="none" stroke-width="1" fill="none" fill-rule="evenodd" opacity="0.600000024">
        <g id="Concept_Jabber-Analytics" transform="translate(-287.000000, -136.000000)" fill="#000000">
            <g id="Group-24" transform="translate(112.000000, 124.000000)">
                <g id="Group" transform="translate(0.000000, -0.000000)">
                    <g id="common-actions/delete_12" transform="translate(173.000000, 12.000000)">
                        <g id="delete_12" transform="translate(2.000000, 0.000000)">
                            <path d="M7.1775,4 C7.4215,4 7.6525,4.103 7.8085,4.283 C7.9565,4.453 8.0235,4.677 7.9925,4.897 L7.1775,10.802 C7.0835,11.485 6.4585,12 5.7235,12 L2.2765,12 C1.5415,12 0.9165,11.485 0.8225,10.802 L0.0075,4.896 C-0.0225,4.676 0.0445,4.452 0.1925,4.283 C0.3485,4.103 0.5785,4 0.8225,4 L7.1775,4 Z M6.1875,10.665 L6.9685,5 L1.0305,5 L1.8125,10.665 L1.8135,10.666 C1.8385,10.853 2.0425,11 2.2765,11 L5.7235,11 C5.9585,11 6.1615,10.852 6.1875,10.665 Z M0.5,3 C0.224,3 0,2.776 0,2.5 C0,2.224 0.224,2 0.5,2 L2.025,2 C2.015,1.959 2,1.919 2,1.875 L2,1.188 C2,0.533 2.533,0 3.187,0 L4.812,0 C5.468,0 6,0.533 6,1.188 L6,1.875 C6,1.919 5.985,1.959 5.975,2 L7.5,2 C7.776,2 8,2.224 8,2.5 C8,2.776 7.776,3 7.5,3 L0.5,3 Z M3,1.875 C3,1.919 2.985,1.959 2.975,2 L5.025,2 C5.015,1.959 5,1.919 5,1.875 L5,1.188 C5,1.084 4.916,1 4.812,1 L3.187,1 C3.084,1 3,1.084 3,1.188 L3,1.875 Z" id="fill"></path>
                        </g>
                    </g>
                </g>
            </g>
        </g>
    </g>
</svg>