<?xml version="1.0" encoding="UTF-8"?>
<svg width="24px" height="14px" viewBox="0 0 24 14" version="1.1" xmlns="http://www.w3.org/2000/svg" xmlns:xlink="http://www.w3.org/1999/xlink">
    <!-- Generator: Sketch 56.2 (81672) - https://sketch.com -->
    <title>settings/diagnostics_24_w</title>
    <desc>Created with Sketch.</desc>
    <g id="Symbols" stroke="none" stroke-width="1" fill="none" fill-rule="evenodd">
        <g id="Control-Hub/Site-Nav-Left/Collapsed-Analytics" transform="translate(-28.000000, -405.000000)" fill="#FFFFFF">
            <g id="Group-2" transform="translate(0.000000, 113.000000)">
                <g id="settings/diagnostics_24_w" transform="translate(28.000000, 287.000000)">
                    <g id="diagnostics_24_w" transform="translate(0.000000, 5.000000)">
                        <path d="M15.3823,14.0029 C14.9313,14.0029 14.5273,13.7479 14.3273,13.3359 L8.7673,1.0969 C8.6903,0.9389 8.5503,0.9279 8.4623,1.1069 L5.8703,6.3379 C5.6713,6.7459 5.2673,7.0009 4.8173,7.0009 L0.5003,7.0009 C0.2233,7.0009 0.0003,6.7769 0.0003,6.5009 C0.0003,6.2249 0.2233,6.0009 0.5003,6.0009 L4.8173,6.0009 C4.8823,6.0009 4.9423,5.9609 4.9733,5.8979 L7.5653,0.6679 C7.7623,0.2599 8.1663,0.0049 8.6173,0.0049 C9.0693,0.0049 9.4733,0.2599 9.6723,0.6719 L15.2323,12.9109 C15.3093,13.0689 15.4493,13.0799 15.5373,12.8999 L18.1153,6.6929 C18.3273,6.2549 18.7313,5.9999 19.1823,5.9999 L23.5003,5.9999 C23.7763,5.9999 24.0003,6.2239 24.0003,6.4999 C24.0003,6.7759 23.7763,6.9999 23.5003,6.9999 L19.1823,6.9999 C19.1173,6.9999 19.0583,7.0389 19.0273,7.1039 L16.4493,13.3099 C16.2373,13.7479 15.8333,14.0029 15.3823,14.0029" id="fill"></path>
                    </g>
                </g>
            </g>
        </g>
    </g>
</svg>