<?xml version="1.0" encoding="UTF-8"?>
<svg width="22px" height="22px" viewBox="0 0 22 22" version="1.1" xmlns="http://www.w3.org/2000/svg" xmlns:xlink="http://www.w3.org/1999/xlink">
    <!-- Generator: Sketch 56.2 (81672) - https://sketch.com -->
    <title>navigation/home-active_24_w</title>
    <desc>Created with Sketch.</desc>
    <g id="Symbols" stroke="none" stroke-width="1" fill="none" fill-rule="evenodd">
        <g id="Control-Hub/Site-Nav-Left/Collapsed-Analytics" transform="translate(-29.000000, -113.000000)" fill="#FFFFFF">
            <g id="Group-2" transform="translate(0.000000, 112.000000)">
                <g id="navigation/home_24_w" transform="translate(28.000000, 0.000000)">
                    <g id="home_24_w" transform="translate(1.000000, 1.000000)">
                        <path d="M10.9971,-0.0001 C11.5811,-0.0001 12.1651,0.2009 12.6301,0.6029 L20.7861,7.6369 C21.5571,8.3019 22.0001,9.2699 22.0001,10.2879 L22.0001,20.4999 C22.0001,21.3279 21.3291,21.9999 20.5001,21.9999 L14.4971,21.9999 C13.6691,21.9999 12.9971,21.3279 12.9971,20.4999 L12.9971,14.5169 C12.9971,14.2409 12.7721,14.0169 12.4971,14.0169 L9.4961,14.0169 C9.2211,14.0169 8.9971,14.2409 8.9971,14.5159 L8.9971,20.4999 C8.9971,21.3279 8.3251,21.9999 7.4971,21.9999 L1.5521,21.9999 C0.7261,21.9999 0.0561,21.3329 0.0521,20.5079 L5.81271417e-05,10.2999 C-0.0049,9.2759 0.4381,8.3019 1.2131,7.6329 L9.3631,0.6029 C9.8291,0.2009 10.4131,-0.0001 10.9971,-0.0001 Z M10.9971,0.9999 C10.6341,0.9999 10.2851,1.1279 10.0161,1.3599 L1.8671,8.3899 C1.3121,8.8689 0.9961,9.5629 1.00006248,10.2949 L1.0521,20.5029 C1.0531,20.7769 1.2781,20.9999 1.5521,20.9999 L7.4971,20.9999 C7.7721,20.9999 7.9971,20.7749 7.9971,20.4999 L7.9971,14.5159 C7.9971,13.6889 8.6691,13.0169 9.4961,13.0169 L12.4971,13.0169 C13.3251,13.0169 13.9971,13.6889 13.9971,14.5169 L13.9971,20.4999 C13.9971,20.7749 14.2221,20.9999 14.4971,20.9999 L20.5001,20.9999 C20.7761,20.9999 21.0001,20.7749 21.0001,20.4999 L21.0001,10.2879 C21.0001,9.5599 20.6841,8.8699 20.1321,8.3939 L11.9771,1.3599 C11.7081,1.1279 11.3601,0.9999 10.9971,0.9999 Z" id="fill"></path>
                    </g>
                </g>
            </g>
        </g>
    </g>
</svg>