<?xml version="1.0" encoding="UTF-8"?>
<svg width="14px" height="22px" viewBox="0 0 14 22" version="1.1" xmlns="http://www.w3.org/2000/svg" xmlns:xlink="http://www.w3.org/1999/xlink">
    <!-- Generator: Sketch 56.2 (81672) - https://sketch.com -->
    <title>meetings/location_24_w</title>
    <desc>Created with Sketch.</desc>
    <g id="Symbols" stroke="none" stroke-width="1" fill="none" fill-rule="evenodd">
        <g id="Control-Hub/Site-Nav-Left/Collapsed-Analytics" transform="translate(-33.000000, -209.000000)" fill="#FFFFFF">
            <g id="Group-2" transform="translate(0.000000, 112.000000)">
                <g id="meetings/location_24_w" transform="translate(28.000000, 96.000000)">
                    <g id="location_24_w" transform="translate(5.000000, 1.000000)">
                        <path d="M7.0001,-0.0003 C10.8601,-0.0003 14.0001,3.3127 14.0001,7.3847 C14.0001,12.6497 7.6741,21.4227 7.4051,21.7937 C7.3101,21.9227 7.1281,22.0217 7.0001,21.9997 C6.8431,21.9997 6.6941,21.9257 6.6001,21.7997 C6.3301,21.4407 0.0001,12.9367 0.0001,7.3847 C0.0001,3.3127 3.1401,-0.0003 7.0001,-0.0003 Z M6.9941,20.6377 C8.3941,18.6047 13.0001,11.5957 13.0001,7.3847 C13.0001,3.8647 10.3081,0.9997 7.0001,0.9997 C3.6911,0.9997 1.0001,3.8647 1.0001,7.3847 C1.0001,11.8267 5.5851,18.6477 6.9941,20.6377 Z M7,8 C6.44771525,8 6,7.55228475 6,7 C6,6.44771525 6.44771525,6 7,6 C7.55228475,6 8,6.44771525 8,7 C8,7.55228475 7.55228475,8 7,8 Z" id="fill"></path>
                    </g>
                </g>
            </g>
        </g>
    </g>
</svg>