<?xml version="1.0" encoding="UTF-8"?>
<svg width="18px" height="18px" viewBox="0 0 18 18" version="1.1" xmlns="http://www.w3.org/2000/svg" xmlns:xlink="http://www.w3.org/1999/xlink">
    <!-- Generator: Sketch 56.2 (81672) - https://sketch.com -->
    <title>notification outline copy 11</title>
    <desc>Created with Sketch.</desc>
    <g id="Page-1" stroke="none" stroke-width="1" fill="none" fill-rule="evenodd">
        <g id="WAP-3.8-Meeting-Revamp---CH-Analytics-Engagement-Visual-Design" transform="translate(-1375.000000, -590.000000)">
            <g id="notification-outline" transform="translate(1376.000000, 591.000000)">
                <g id="Group-2">
                    <g id="notifications-&amp;-alerts/info/16-copy-2">
                        <rect id="bounds" x="0" y="0" width="16" height="16"></rect>
                        <path d="M8.996,10.993 C8.996,11.545 8.548,11.993 7.996,11.993 C7.444,11.993 6.996,11.545 6.996,10.993 L6.996,7.993 C6.996,7.441 7.444,6.993 7.996,6.993 C8.548,6.993 8.996,7.441 8.996,7.993 L8.996,10.993 Z M8.996,4.995 C8.996,5.541 8.553,5.985 8.006,5.985 L7.986,5.985 C7.439,5.985 6.996,5.541 6.996,4.995 L6.996,4.99 C6.996,4.443 7.439,4 7.986,4 L8.006,4 C8.553,4 8.996,4.443 8.996,4.99 L8.996,4.995 L8.996,4.995 Z" id="icon" fill="#AEAEAF"></path>
                    </g>
                    <circle id="Oval-3" stroke="#AEAEAF" cx="8" cy="8" r="8"></circle>
                </g>
            </g>
        </g>
    </g>
</svg>