<?xml version="1.0" encoding="UTF-8"?>
<svg width="12px" height="12px" viewBox="0 0 12 12" version="1.1" xmlns="http://www.w3.org/2000/svg" xmlns:xlink="http://www.w3.org/1999/xlink">
    <!-- Generator: Sketch 56.2 (81672) - https://sketch.com -->
    <title>content/pen_12</title>
    <desc>Created with Sketch.</desc>
    <g id="Page-1" stroke="none" stroke-width="1" fill="none" fill-rule="evenodd" opacity="0.600000024">
        <g id="Concept_Jabber-Analytics" transform="translate(-269.000000, -136.000000)" fill="#000000">
            <g id="Group-24" transform="translate(112.000000, 124.000000)">
                <g id="Group" transform="translate(0.000000, -0.000000)">
                    <g id="content/pen_12" transform="translate(157.000000, 12.000000)">
                        <g id="pen_12">
                            <path d="M10.6931,2.7859 L3.2951,10.1829 L1.8141,8.7029 L9.2131,1.3059 C9.6211,0.8979 10.2851,0.8979 10.6931,1.3059 C10.8911,1.5029 11.0001,1.7659 11.0001,2.0459 C11.0001,2.3259 10.8911,2.5879 10.6931,2.7859 L10.6931,2.7859 Z M1.1531,10.8449 L1.4011,9.7039 L2.2941,10.5969 L1.1531,10.8449 Z M11.4001,0.5979 C10.6011,-0.1991 9.3041,-0.1991 8.5051,0.5979 L0.7541,8.3499 C0.6861,8.4179 0.6391,8.5039 0.6191,8.5979 L0.0111,11.3929 C-0.0249,11.5589 0.0261,11.7319 0.1461,11.8519 C0.2411,11.9469 0.3691,11.9989 0.5001,11.9989 C0.5351,11.9989 0.5711,11.9949 0.6061,11.9879 L3.4011,11.3799 C3.4951,11.3589 3.5811,11.3119 3.6481,11.2439 L11.4001,3.4929 C11.7871,3.1059 12.0001,2.5929 12.0001,2.0459 C12.0001,1.4989 11.7871,0.9849 11.4001,0.5979 L11.4001,0.5979 Z" id="fill"></path>
                        </g>
                    </g>
                </g>
            </g>
        </g>
    </g>
</svg>