<?xml version="1.0" encoding="UTF-8"?>
<svg width="16px" height="16px" viewBox="0 0 16 16" version="1.1" xmlns="http://www.w3.org/2000/svg" xmlns:xlink="http://www.w3.org/1999/xlink">
    <!-- Generator: Sketch 56.2 (81672) - https://sketch.com -->
    <title>common-actions/plus_14</title>
    <desc>Created with Sketch.</desc>
    <g id="Page-1" stroke="none" stroke-width="1" fill="none" fill-rule="evenodd">
        <g id="Concept_Jabber-Analytics" transform="translate(-1382.000000, -172.000000)" fill="#000000">
            <g id="Group-24" transform="translate(112.000000, 124.000000)">
                <g id="Group-9" transform="translate(1262.000000, 0.000000)">
                    <g id="common-actions/plus_16" transform="translate(8.000000, 48.000000)">
                        <g id="plus_16">
                            <path d="M8.5,7.5 L15.5036068,7.5 C15.7777572,7.5 16,7.73193359 16,8 C16,8.27614237 15.773819,8.5 15.5036068,8.5 L8.5,8.5 L8.5,15.5036068 C8.5,15.7777572 8.26806641,16 8,16 C7.72385763,16 7.5,15.773819 7.5,15.5036068 L7.5,8.5 L0.496393204,8.5 C0.222242807,8.5 0,8.26806641 0,8 C0,7.72385763 0.22618103,7.5 0.496393204,7.5 L7.5,7.5 L7.5,0.496393204 C7.5,0.222242807 7.73193359,0 8,0 C8.27614237,0 8.5,0.22618103 8.5,0.496393204 L8.5,7.5 Z" id="fill"></path>
                        </g>
                    </g>
                </g>
            </g>
        </g>
    </g>
</svg>