<?xml version="1.0" encoding="UTF-8"?>
<svg width="13px" height="12px" viewBox="0 0 13 12" version="1.1" xmlns="http://www.w3.org/2000/svg" xmlns:xlink="http://www.w3.org/1999/xlink">
    <!-- Generator: Sketch 56.2 (81672) - https://sketch.com -->
    <title>common-actions/plus_14</title>
    <desc>Created with Sketch.</desc>
    <g id="Page-1" stroke="none" stroke-width="1" fill="none" fill-rule="evenodd">
        <g id="Concept_Jabber-Analytics" transform="translate(-554.000000, -266.000000)" fill="#000000">
            <g id="Group-13" transform="translate(544.000000, 256.000000)">
                <g id="common-actions/plus_12" transform="translate(10.500000, 10.000000)">
                    <g id="plus_12">
                        <path d="M5.5,5.5 L5.5,0.5 C5.5,0.223857625 5.72385763,5.07265313e-17 6,0 C6.27614237,-5.07265313e-17 6.5,0.223857625 6.5,0.5 L6.5,5.5 L11.5,5.5 C11.7761424,5.5 12,5.72385763 12,6 C12,6.27614237 11.7761424,6.5 11.5,6.5 L6.5,6.5 L6.5,11.5 C6.5,11.7761424 6.27614237,12 6,12 C5.72385763,12 5.5,11.7761424 5.5,11.5 L5.5,6.5 L0.5,6.5 C0.223857625,6.5 3.38176876e-17,6.27614237 0,6 C-3.38176876e-17,5.72385763 0.223857625,5.5 0.5,5.5 L5.5,5.5 Z" id="fill"></path>
                    </g>
                </g>
            </g>
        </g>
    </g>
</svg>