<?xml version="1.0" encoding="UTF-8"?>
<svg width="24px" height="24px" viewBox="0 0 24 24" version="1.1" xmlns="http://www.w3.org/2000/svg" xmlns:xlink="http://www.w3.org/1999/xlink">
    <!-- Generator: Sketch 56.2 (81672) - https://sketch.com -->
    <title>settings/settings_24_w</title>
    <desc>Created with Sketch.</desc>
    <g id="Symbols" stroke="none" stroke-width="1" fill="none" fill-rule="evenodd">
        <g id="Control-Hub/Site-Nav-Left/Collapsed-Analytics" transform="translate(-28.000000, -448.000000)" fill="#FFFFFF">
            <g id="Group-2" transform="translate(0.000000, 112.000000)">
                <g id="settings/settings_24_w" transform="translate(28.000000, 336.000000)">
                    <g id="settings_24_w">
                        <path d="M7.975,18.603 C8.04,18.603 8.104,18.616 8.166,18.641 L10.018,19.406 C10.152,19.461 10.256,19.572 10.302,19.709 L11.214,22.436 C11.327,22.774 11.642,23 11.997,23 C12.358,23 12.673,22.773 12.786,22.435 L13.69,19.708 C13.736,19.571 13.839,19.46 13.973,19.404 L15.824,18.635 C15.957,18.58 16.11,18.585 16.239,18.65 L18.817,19.936 C19.135,20.094 19.518,20.033 19.77,19.781 C20.026,19.525 20.088,19.142 19.928,18.823 L18.64,16.251 C18.575,16.122 18.569,15.97 18.625,15.835 L19.394,13.983 C19.45,13.849 19.561,13.746 19.699,13.7 L22.434,12.794 C22.773,12.682 23,12.367 23,12.01 L23,12.004 C23,11.649 22.774,11.334 22.436,11.221 L19.697,10.305 C19.559,10.259 19.449,10.156 19.393,10.021 L18.629,8.169 C18.574,8.035 18.58,7.883 18.645,7.753 L19.939,5.178 C20.1,4.859 20.038,4.476 19.786,4.223 C19.531,3.968 19.148,3.906 18.829,4.065 L16.245,5.355 C16.115,5.419 15.962,5.424 15.83,5.37 L13.98,4.603 C13.846,4.547 13.743,4.436 13.697,4.299 L12.787,1.565 C12.674,1.228 12.359,1 12.003,1 C11.642,1 11.327,1.228 11.215,1.565 L10.305,4.297 C10.259,4.434 10.156,4.545 10.022,4.601 L8.171,5.367 C8.037,5.423 7.886,5.417 7.756,5.353 L5.184,4.066 C4.865,3.906 4.482,3.969 4.23,4.221 C3.975,4.477 3.912,4.86 4.071,5.178 L5.358,7.754 C5.423,7.883 5.429,8.035 5.373,8.168 L4.609,10.018 C4.554,10.152 4.443,10.255 4.306,10.301 L1.564,11.221 C1.227,11.333 1,11.648 1,12.004 C1,12.368 1.228,12.683 1.566,12.795 L4.298,13.701 C4.435,13.747 4.547,13.85 4.602,13.984 L5.371,15.833 C5.427,15.967 5.422,16.118 5.357,16.248 L4.07,18.835 C3.911,19.153 3.974,19.536 4.225,19.787 C4.481,20.044 4.866,20.106 5.184,19.946 L7.75,18.656 C7.821,18.621 7.898,18.603 7.975,18.603 M12.002,24 C11.21,24 10.515,23.499 10.266,22.754 L9.426,20.243 L7.996,19.652 L5.633,20.839 C4.928,21.193 4.079,21.056 3.522,20.499 C2.962,19.938 2.825,19.093 3.174,18.39 L4.36,16.006 L3.767,14.579 L1.251,13.744 C0.503,13.495 -9.9475983e-14,12.799 -9.9475983e-14,12.011 C-9.9475983e-14,11.218 0.501,10.522 1.246,10.272 L3.772,9.426 L4.362,7.997 L3.177,5.625 C2.825,4.921 2.962,4.075 3.518,3.518 C4.079,2.957 4.928,2.819 5.631,3.171 L7.999,4.356 L9.428,3.764 L10.266,1.249 C10.514,0.502 11.21,0 11.998,0 C12.79,0 13.486,0.502 13.735,1.249 L14.574,3.766 L16.002,4.358 L18.383,3.17 C19.087,2.818 19.934,2.957 20.49,3.513 C21.051,4.074 21.187,4.922 20.833,5.627 L19.641,7.999 L20.231,9.429 L22.754,10.273 C23.499,10.522 24,11.218 24,12.004 L24,12.01 C24,12.799 23.497,13.496 22.748,13.744 L20.23,14.578 L19.636,16.008 L20.823,18.375 C21.175,19.08 21.038,19.927 20.482,20.484 C19.921,21.044 19.075,21.183 18.371,20.831 L15.996,19.646 L14.568,20.24 L13.735,22.75 C13.487,23.498 12.79,24 12.002,24 Z M12.0004,8.0005 C14.2064,8.0005 16.0004,9.7945 16.0004,12.0005 C16.0004,14.2065 14.2064,16.0005 12.0004,16.0005 C9.7944,16.0005 8.0004,14.2065 8.0004,12.0005 C8.0004,9.7945 9.7944,8.0005 12.0004,8.0005 Z M12.0004,17.0005 C14.7574,17.0005 17.0004,14.7575 17.0004,12.0005 C17.0004,9.2435 14.7574,7.0005 12.0004,7.0005 C9.2434,7.0005 7.0004,9.2435 7.0004,12.0005 C7.0004,14.7575 9.2434,17.0005 12.0004,17.0005 Z" id="fill"></path>
                    </g>
                </g>
            </g>
        </g>
    </g>
</svg>